<svg width="29" height="28" viewBox="0 0 29 28" fill="none" xmlns="http://www.w3.org/2000/svg">
<g clip-path="url(#clip0)">
<path d="M10.7 22.1979C4.86666 23.9479 4.86666 19.2812 2.53333 18.6979M18.8667 25.6979V21.1829C18.9104 20.6266 18.8353 20.0673 18.6462 19.5423C18.4571 19.0173 18.1584 18.5385 17.77 18.1379C21.4333 17.7295 25.2833 16.3412 25.2833 9.97122C25.283 8.34235 24.6565 6.77595 23.5333 5.59622C24.0652 4.17114 24.0276 2.59596 23.4283 1.19788C23.4283 1.19788 22.0517 0.789551 18.8667 2.92455C16.1927 2.19984 13.374 2.19984 10.7 2.92455C7.51499 0.789551 6.13833 1.19788 6.13833 1.19788C5.5391 2.59596 5.50149 4.17114 6.03333 5.59622C4.90181 6.7847 4.2746 8.36526 4.28333 10.0062C4.28333 16.3295 8.13332 17.7179 11.7967 18.1729C11.4128 18.5695 11.1168 19.0425 10.9279 19.5611C10.7389 20.0797 10.6613 20.6323 10.7 21.1829V25.6979" stroke="#232A3D" stroke-width="2.5" stroke-linecap="round" stroke-linejoin="round"/>
</g>
<defs>
<clipPath id="clip0">
<rect width="28" height="28" fill="white" transform="translate(0.200012)"/>
</clipPath>
</defs>
</svg>
